<svg width="132" height="36" viewBox="0 0 132 36" fill="none" xmlns="http://www.w3.org/2000/svg">
<g clip-path="url(#clip0_232_6787)">
<path d="M25.5 10.5L18.75 9.75L10.5 10.5L9.75 18L10.5 25.5L18 26.4375L25.5 25.5L26.25 17.8125L25.5 10.5Z" fill="white"/>
<path d="M13.5766 22.1364C13.016 21.7577 12.6279 21.2046 12.416 20.4733L13.7173 19.9371C13.8354 20.3871 14.0416 20.7358 14.336 20.9833C14.6285 21.2308 14.9848 21.3527 15.401 21.3527C15.8266 21.3527 16.1923 21.2233 16.4979 20.9646C16.8035 20.7058 16.9573 20.3758 16.9573 19.9764C16.9573 19.5677 16.796 19.2339 16.4735 18.9752C16.151 18.7164 15.746 18.5871 15.2623 18.5871H14.5104V17.2989H15.1854C15.6016 17.2989 15.9523 17.1864 16.2373 16.9614C16.5223 16.7364 16.6648 16.4289 16.6648 16.0371C16.6648 15.6883 16.5373 15.4108 16.2823 15.2027C16.0273 14.9946 15.7048 14.8896 15.3129 14.8896C14.9304 14.8896 14.6266 14.9908 14.4016 15.1952C14.1766 15.3996 14.0135 15.6508 13.9104 15.9471L12.6223 15.4108C12.7929 14.9271 13.106 14.4996 13.5654 14.1302C14.0248 13.7608 14.6116 13.5752 15.3241 13.5752C15.851 13.5752 16.3254 13.6764 16.7454 13.8808C17.1654 14.0852 17.4954 14.3683 17.7335 14.7283C17.9716 15.0902 18.0898 15.4952 18.0898 15.9452C18.0898 16.4046 17.9791 16.7927 17.7579 17.1114C17.5366 17.4302 17.2648 17.6739 16.9423 17.8446V17.9214C17.3679 18.0996 17.7148 18.3714 17.9885 18.7371C18.2604 19.1027 18.3973 19.5396 18.3973 20.0496C18.3973 20.5596 18.2679 21.0152 18.0091 21.4146C17.7504 21.8139 17.3923 22.1289 16.9385 22.3577C16.4829 22.5864 15.971 22.7027 15.4029 22.7027C14.7448 22.7046 14.1373 22.5152 13.5766 22.1364Z" fill="#2684FC"/>
<path d="M21.5624 15.6787L20.1411 16.7118L19.4268 15.628L21.9899 13.7793H22.9724V22.4999H21.5624V15.6787Z" fill="#2684FC"/>
<path d="M25.5 32.25L32.25 25.5V24H25.5V25.5H24V32.25H25.5Z" fill="#E94235"/>
<path d="M25.5 25.5H9V32.25H25.5V25.5Z" fill="#00AC47"/>
<path d="M6 3.75C4.75687 3.75 3.75 4.75687 3.75 6V27H10.5V10.5H27V3.75H6Z" fill="#2684FC"/>
<path d="M3.75 25.5V30C3.75 31.2431 4.75687 32.25 6 32.25H10.5V25.5H3.75Z" fill="#00832D"/>
<path d="M32.25 9H25.5V25.5H32.25V9Z" fill="#FFBA00"/>
<path d="M32.25 10.5V6C32.25 4.75687 31.2431 3.75 30 3.75H25.5V10.5H32.25Z" fill="#0066DA"/>
</g>
<path d="M52.998 25.852C50.666 25.852 48.7153 25.0673 47.146 23.498C45.5913 21.9287 44.814 19.9707 44.814 17.624C44.814 15.2773 45.5913 13.3267 47.146 11.772C48.7007 10.188 50.6513 9.396 52.998 9.396C55.374 9.396 57.3027 10.254 58.784 11.97L57.332 13.378C56.2027 12.014 54.758 11.332 52.998 11.332C51.2527 11.332 49.7933 11.9187 48.62 13.092C47.4613 14.2507 46.882 15.7613 46.882 17.624C46.882 19.4867 47.4613 20.9973 48.62 22.156C49.7933 23.3293 51.2527 23.916 52.998 23.916C54.8313 23.916 56.4227 23.146 57.772 21.606L59.246 23.036C58.498 23.9307 57.5813 24.6273 56.496 25.126C55.4107 25.61 54.2447 25.852 52.998 25.852ZM62.3855 22.2C62.3855 22.728 62.6055 23.168 63.0455 23.52C63.5001 23.872 64.0281 24.048 64.6295 24.048C65.4801 24.048 66.2355 23.7327 66.8955 23.102C67.5701 22.4713 67.9075 21.7307 67.9075 20.88C67.2768 20.3813 66.3968 20.132 65.2675 20.132C64.4461 20.132 63.7568 20.33 63.1995 20.726C62.6568 21.122 62.3855 21.6133 62.3855 22.2ZM65.0035 14.368C66.4995 14.368 67.6801 14.7713 68.5455 15.578C69.4108 16.37 69.8435 17.4627 69.8435 18.856V25.5H67.9075V24.004H67.8195C66.9835 25.236 65.8688 25.852 64.4755 25.852C63.2875 25.852 62.2901 25.5 61.4835 24.796C60.6915 24.092 60.2955 23.212 60.2955 22.156C60.2955 21.0413 60.7135 20.154 61.5495 19.494C62.4001 18.834 63.5295 18.504 64.9375 18.504C66.1401 18.504 67.1301 18.724 67.9075 19.164V18.702C67.9075 17.998 67.6288 17.404 67.0715 16.92C66.5141 16.4213 65.8615 16.172 65.1135 16.172C63.9841 16.172 63.0895 16.6487 62.4295 17.602L60.6475 16.48C61.6301 15.072 63.0821 14.368 65.0035 14.368ZM74.2321 9.748V25.5H72.2081V9.748H74.2321ZM81.5128 25.852C79.9288 25.852 78.6234 25.3093 77.5968 24.224C76.5701 23.1387 76.0568 21.7673 76.0568 20.11C76.0568 18.4673 76.5554 17.1033 77.5528 16.018C78.5501 14.918 79.8261 14.368 81.3808 14.368C82.9794 14.368 84.2481 14.8887 85.1868 15.93C86.1401 16.9567 86.6168 18.4013 86.6168 20.264L86.5948 20.484H78.1248C78.1541 21.54 78.5061 22.3907 79.1808 23.036C79.8554 23.6813 80.6621 24.004 81.6008 24.004C82.8914 24.004 83.9034 23.3587 84.6368 22.068L86.4408 22.948C85.9568 23.8573 85.2821 24.5687 84.4168 25.082C83.5661 25.5953 82.5981 25.852 81.5128 25.852ZM78.2788 18.812H84.4608C84.4021 18.064 84.0941 17.448 83.5368 16.964C82.9941 16.4653 82.2608 16.216 81.3368 16.216C80.5741 16.216 79.9141 16.4507 79.3568 16.92C78.8141 17.3893 78.4548 18.02 78.2788 18.812ZM88.5495 14.72H90.4855V16.216H90.5735C90.8815 15.688 91.3508 15.248 91.9815 14.896C92.6268 14.544 93.2942 14.368 93.9835 14.368C95.3035 14.368 96.3155 14.7493 97.0195 15.512C97.7382 16.26 98.0975 17.3307 98.0975 18.724V25.5H96.0735V18.856C96.0295 17.096 95.1422 16.216 93.4115 16.216C92.6048 16.216 91.9302 16.546 91.3875 17.206C90.8448 17.8513 90.5735 18.6287 90.5735 19.538V25.5H88.5495V14.72ZM105.395 24.004C106.392 24.004 107.206 23.6447 107.837 22.926C108.497 22.2073 108.827 21.2687 108.827 20.11C108.827 18.9807 108.497 18.0493 107.837 17.316C107.192 16.5827 106.378 16.216 105.395 16.216C104.427 16.216 103.613 16.5827 102.953 17.316C102.293 18.0493 101.963 18.9807 101.963 20.11C101.963 21.254 102.293 22.1853 102.953 22.904C103.613 23.6373 104.427 24.004 105.395 24.004ZM105.065 25.852C103.657 25.852 102.447 25.2947 101.435 24.18C100.438 23.0507 99.9392 21.694 99.9392 20.11C99.9392 18.526 100.438 17.1693 101.435 16.04C102.447 14.9253 103.657 14.368 105.065 14.368C105.857 14.368 106.576 14.5367 107.221 14.874C107.881 15.2113 108.387 15.6587 108.739 16.216H108.827L108.739 14.72V9.748H110.763V25.5H108.827V24.004H108.739C108.387 24.5613 107.881 25.0087 107.221 25.346C106.576 25.6833 105.857 25.852 105.065 25.852ZM114.679 22.2C114.679 22.728 114.899 23.168 115.339 23.52C115.794 23.872 116.322 24.048 116.923 24.048C117.774 24.048 118.529 23.7327 119.189 23.102C119.864 22.4713 120.201 21.7307 120.201 20.88C119.571 20.3813 118.691 20.132 117.561 20.132C116.74 20.132 116.051 20.33 115.493 20.726C114.951 21.122 114.679 21.6133 114.679 22.2ZM117.297 14.368C118.793 14.368 119.974 14.7713 120.839 15.578C121.705 16.37 122.137 17.4627 122.137 18.856V25.5H120.201V24.004H120.113C119.277 25.236 118.163 25.852 116.769 25.852C115.581 25.852 114.584 25.5 113.777 24.796C112.985 24.092 112.589 23.212 112.589 22.156C112.589 21.0413 113.007 20.154 113.843 19.494C114.694 18.834 115.823 18.504 117.231 18.504C118.434 18.504 119.424 18.724 120.201 19.164V18.702C120.201 17.998 119.923 17.404 119.365 16.92C118.808 16.4213 118.155 16.172 117.407 16.172C116.278 16.172 115.383 16.6487 114.723 17.602L112.941 16.48C113.924 15.072 115.376 14.368 117.297 14.368ZM126.526 25.5H124.502V14.72H126.438V16.48H126.526C126.731 15.908 127.149 15.424 127.78 15.028C128.425 14.6173 129.056 14.412 129.672 14.412C130.259 14.412 130.757 14.5 131.168 14.676L130.552 16.634C130.303 16.5313 129.907 16.48 129.364 16.48C128.601 16.48 127.934 16.788 127.362 17.404C126.805 18.02 126.526 18.7387 126.526 19.56V25.5Z" fill="#5F6368"/>
<defs>
<clipPath id="clip0_232_6787">
<rect width="36" height="36" fill="white"/>
</clipPath>
</defs>
</svg>
